<svg width="25" height="25" viewBox="0 0 25 25" fill="none" xmlns="http://www.w3.org/2000/svg">
<path d="M18.0312 8.36194C18.0312 6.77064 17.399 5.24452 16.2738 4.1193C15.1486 2.99408 13.6225 2.36194 12.0312 2.36194C10.4399 2.36194 8.91377 2.99408 7.78855 4.1193C6.66333 5.24452 6.03119 6.77064 6.03119 8.36194C6.03119 15.3619 3.03119 17.3619 3.03119 17.3619H21.0312C21.0312 17.3619 18.0312 15.3619 18.0312 8.36194Z" stroke="black" stroke-width="2" stroke-linecap="round" stroke-linejoin="round"/>
<path d="M13.7612 21.3619C13.5854 21.665 13.333 21.9166 13.0294 22.0915C12.7258 22.2663 12.3816 22.3584 12.0312 22.3584C11.6808 22.3584 11.3366 22.2663 11.033 22.0915C10.7293 21.9166 10.477 21.665 10.3012 21.3619" stroke="black" stroke-width="2" stroke-linecap="round" stroke-linejoin="round"/>
</svg>
