<svg width="25" height="24" viewBox="0 0 25 24" fill="none" xmlns="http://www.w3.org/2000/svg">
<path d="M21.875 20.0003C21.875 20.2655 21.7696 20.5198 21.5821 20.7074C21.3946 20.8949 21.1402 21.0003 20.875 21.0003H4.875C4.60978 21.0003 4.35543 20.8949 4.16789 20.7074C3.98036 20.5198 3.875 20.2655 3.875 20.0003V9.49027C3.87489 9.33788 3.90962 9.18749 3.97652 9.05057C4.04341 8.91365 4.14072 8.79384 4.261 8.70027L12.261 2.47827C12.4365 2.34172 12.6526 2.26758 12.875 2.26758C13.0974 2.26758 13.3135 2.34172 13.489 2.47827L21.489 8.70027C21.6093 8.79384 21.7066 8.91365 21.7735 9.05057C21.8404 9.18749 21.8751 9.33788 21.875 9.49027V20.0003ZM11.875 13.0003V19.0003H13.875V13.0003H11.875Z" fill="#6938EF"/>
</svg>
