<svg width="30" height="30" viewBox="0 0 30 30" fill="none" xmlns="http://www.w3.org/2000/svg">
<rect x="1.875" y="1.75" width="26.5" height="26.5" rx="13.25" fill="#E8E8E8"/>
<rect x="1.875" y="1.75" width="26.5" height="26.5" rx="13.25" stroke="#6938EF" stroke-width="2.5"/>
<path d="M15.125 25C9.602 25 5.125 20.523 5.125 15C5.125 9.477 9.602 5 15.125 5C20.648 5 25.125 9.477 25.125 15C25.125 20.523 20.648 25 15.125 25ZM15.125 23C17.2467 23 19.2816 22.1571 20.7819 20.6569C22.2821 19.1566 23.125 17.1217 23.125 15C23.125 12.8783 22.2821 10.8434 20.7819 9.34315C19.2816 7.84285 17.2467 7 15.125 7C13.0033 7 10.9684 7.84285 9.46815 9.34315C7.96785 10.8434 7.125 12.8783 7.125 15C7.125 17.1217 7.96785 19.1566 9.46815 20.6569C10.9684 22.1571 13.0033 23 15.125 23V23ZM10.125 15H12.125C12.125 15.7956 12.4411 16.5587 13.0037 17.1213C13.5663 17.6839 14.3294 18 15.125 18C15.9206 18 16.6837 17.6839 17.2463 17.1213C17.8089 16.5587 18.125 15.7956 18.125 15H20.125C20.125 16.3261 19.5982 17.5979 18.6605 18.5355C17.7229 19.4732 16.4511 20 15.125 20C13.7989 20 12.5271 19.4732 11.5895 18.5355C10.6518 17.5979 10.125 16.3261 10.125 15V15Z" fill="#6938EF"/>
</svg>
