<svg width="21" height="20" viewBox="0 0 21 20" fill="none" xmlns="http://www.w3.org/2000/svg">
<path d="M10.125 20C4.602 20 0.125 15.523 0.125 10C0.125 4.477 4.602 0 10.125 0C15.648 0 20.125 4.477 20.125 10C20.125 15.523 15.648 20 10.125 20ZM10.125 18C12.2467 18 14.2816 17.1571 15.7819 15.6569C17.2821 14.1566 18.125 12.1217 18.125 10C18.125 7.87827 17.2821 5.84344 15.7819 4.34315C14.2816 2.84285 12.2467 2 10.125 2C8.00327 2 5.96844 2.84285 4.46815 4.34315C2.96785 5.84344 2.125 7.87827 2.125 10C2.125 12.1217 2.96785 14.1566 4.46815 15.6569C5.96844 17.1571 8.00327 18 10.125 18ZM5.125 10H7.125C7.125 10.7956 7.44107 11.5587 8.00368 12.1213C8.56629 12.6839 9.32935 13 10.125 13C10.9206 13 11.6837 12.6839 12.2463 12.1213C12.8089 11.5587 13.125 10.7956 13.125 10H15.125C15.125 11.3261 14.5982 12.5979 13.6605 13.5355C12.7229 14.4732 11.4511 15 10.125 15C8.79892 15 7.52715 14.4732 6.58947 13.5355C5.65178 12.5979 5.125 11.3261 5.125 10Z" fill="black"/>
</svg>
