<svg width="25" height="24" viewBox="0 0 25 24" fill="none" xmlns="http://www.w3.org/2000/svg">
  <path
    d="M22 5.924a8.38 8.38 0 0 1-2.357.646A4.117 4.117 0 0 0 21.448 4.1a8.224 8.224 0 0 1-2.605.996A4.107 4.107 0 0 0 12.5 8.18c0 .322.036.637.106.937A11.654 11.654 0 0 1 4.5 4.97a4.106 4.106 0 0 0 1.27 5.48A4.073 4.073 0 0 1 3.8 9.6v.052a4.104 4.104 0 0 0 3.292 4.025 4.093 4.093 0 0 1-1.082.144c-.264 0-.52-.025-.77-.073a4.108 4.108 0 0 0 3.834 2.85A8.233 8.233 0 0 1 2.5 19.13a11.616 11.616 0 0 0 6.29 1.845c7.547 0 11.675-6.155 11.675-11.49 0-.175-.004-.349-.012-.522A8.18 8.18 0 0 0 22 5.924Z"
    fill="currentColor"
  />
</svg>
